<svg width="20" height="20" viewBox="0 0 20 20" fill="none" xmlns="http://www.w3.org/2000/svg">
<path d="M17.9141 16.5098L13.0672 11.6621C13.8483 10.5887 14.2685 9.29508 14.2672 7.96758C14.2672 4.49297 11.4402 1.66602 7.96563 1.66602C4.49102 1.66602 1.66406 4.49297 1.66406 7.96758C1.66406 11.4422 4.49102 14.2691 7.96563 14.2691C9.29313 14.2704 10.5868 13.8502 11.6602 13.0691L16.5078 17.916L17.9141 16.5098ZM7.96563 12.2789C7.11281 12.279 6.27913 12.0262 5.57002 11.5524C4.8609 11.0787 4.30819 10.4053 3.9818 9.61739C3.65541 8.82951 3.56999 7.96254 3.73634 7.12611C3.9027 6.28968 4.31336 5.52137 4.91639 4.91834C5.51942 4.31531 6.28773 3.90465 7.12416 3.7383C7.96058 3.57194 8.82756 3.65736 9.61544 3.98375C10.4033 4.31015 11.0767 4.86285 11.5505 5.57197C12.0242 6.28109 12.277 7.11477 12.277 7.96758C12.2756 9.1106 11.8209 10.2064 11.0127 11.0147C10.2045 11.8229 9.10865 12.2776 7.96563 12.2789Z" fill="#B1B1B1"/>
</svg>
