<svg width="108" height="24" viewBox="0 0 108 24" fill="none" xmlns="http://www.w3.org/2000/svg">
<path d="M95.5469 20.2868V4.27539H102.75C103.484 4.27539 104.141 4.39773 104.722 4.64241C105.319 4.8718 105.824 5.20824 106.236 5.65173C106.649 6.07992 106.963 6.59987 107.177 7.21158C107.391 7.82328 107.498 8.49616 107.498 9.2302C107.498 9.97954 107.391 10.6601 107.177 11.2718C106.963 11.8682 106.649 12.3881 106.236 12.8316C105.824 13.2598 105.319 13.5963 104.722 13.8409C104.141 14.0703 103.484 14.185 102.75 14.185H98.5748V20.2868H95.5469ZM98.5748 11.57H102.474C103.056 11.57 103.514 11.4171 103.851 11.1112C104.187 10.7901 104.355 10.3389 104.355 9.7578V8.70261C104.355 8.12149 104.187 7.678 103.851 7.37215C103.514 7.0663 103.056 6.91337 102.474 6.91337H98.5748V11.57Z" fill="white"/>
<path d="M85.5047 20.5619C84.4495 20.5619 83.4937 20.3861 82.6373 20.0343C81.7809 19.6826 81.0469 19.155 80.4352 18.4515C79.8388 17.7481 79.3723 16.884 79.0359 15.8594C78.6995 14.8348 78.5312 13.642 78.5312 12.281C78.5312 10.9352 78.6995 9.75003 79.0359 8.72542C79.3723 7.68553 79.8388 6.81384 80.4352 6.11038C81.0469 5.40692 81.7809 4.87933 82.6373 4.5276C83.4937 4.17587 84.4495 4 85.5047 4C86.5599 4 87.5157 4.17587 88.3721 4.5276C89.2284 4.87933 89.9625 5.40692 90.5742 6.11038C91.1859 6.81384 91.6523 7.68553 91.9735 8.72542C92.3099 9.75003 92.4781 10.9352 92.4781 12.281C92.4781 13.642 92.3099 14.8348 91.9735 15.8594C91.6523 16.884 91.1859 17.7481 90.5742 18.4515C89.9625 19.155 89.2284 19.6826 88.3721 20.0343C87.5157 20.3861 86.5599 20.5619 85.5047 20.5619ZM85.5047 17.8781C86.6516 17.8781 87.5615 17.4958 88.2344 16.7311C88.9226 15.9665 89.2667 14.896 89.2667 13.5197V11.0423C89.2667 9.66592 88.9226 8.59544 88.2344 7.8308C87.5615 7.06617 86.6516 6.68386 85.5047 6.68386C84.3577 6.68386 83.4402 7.06617 82.752 7.8308C82.0791 8.59544 81.7427 9.66592 81.7427 11.0423V13.5197C81.7427 14.896 82.0791 15.9665 82.752 16.7311C83.4402 17.4958 84.3577 17.8781 85.5047 17.8781Z" fill="white"/>
<path d="M72.4336 13.5198H65.7584V20.2868H62.7305V4.27539H65.7584V10.8359H72.4336V4.27539H75.4616V20.2868H72.4336V13.5198Z" fill="white"/>
<path d="M53.6868 20.5619C52.3104 20.5619 51.1406 20.3172 50.1771 19.8279C49.229 19.3385 48.4108 18.6962 47.7227 17.901L49.7642 15.9283C50.3148 16.5705 50.9265 17.0599 51.5993 17.3963C52.2875 17.7328 53.0445 17.901 53.8703 17.901C54.8031 17.901 55.5066 17.7022 55.9807 17.3046C56.4547 16.8917 56.6918 16.3412 56.6918 15.653C56.6918 15.1177 56.5389 14.6819 56.233 14.3455C55.9272 14.009 55.3537 13.7643 54.5126 13.6114L52.9986 13.382C49.8025 12.8774 48.2044 11.3252 48.2044 8.72542C48.2044 8.00667 48.3344 7.35673 48.5943 6.77561C48.8696 6.19449 49.2596 5.69748 49.7642 5.28458C50.2689 4.87168 50.8729 4.55818 51.5764 4.34408C52.2952 4.11469 53.1057 4 54.0079 4C55.216 4 56.2712 4.1988 57.1735 4.59641C58.0758 4.99402 58.848 5.58279 59.4903 6.36271L57.4258 8.31252C57.0282 7.82316 56.5465 7.42555 55.9807 7.1197C55.4148 6.81384 54.7037 6.66092 53.8474 6.66092C52.9757 6.66092 52.3181 6.82914 51.8746 7.16558C51.4464 7.48672 51.2323 7.9455 51.2323 8.54191C51.2323 9.15362 51.4082 9.60475 51.7599 9.89531C52.1116 10.1859 52.6775 10.4 53.4574 10.5376L54.9484 10.8129C56.5694 11.1034 57.7623 11.6234 58.5269 12.3727C59.3068 13.1068 59.6968 14.139 59.6968 15.4695C59.6968 16.2341 59.5592 16.9299 59.2839 17.5569C59.0239 18.1686 58.634 18.7039 58.114 19.1626C57.6093 19.6061 56.9823 19.9502 56.233 20.1949C55.499 20.4396 54.6502 20.5619 53.6868 20.5619Z" fill="white"/>
<path d="M43.4132 20.5388C42.7862 20.5388 42.3198 20.3859 42.014 20.0801C41.7234 19.7589 41.5781 19.3537 41.5781 18.8643V18.4514C41.5781 17.962 41.7234 17.5568 42.014 17.2356C42.3198 16.9145 42.7862 16.7539 43.4132 16.7539C44.0555 16.7539 44.522 16.9145 44.8125 17.2356C45.1031 17.5568 45.2484 17.962 45.2484 18.4514V18.8643C45.2484 19.3537 45.1031 19.7589 44.8125 20.0801C44.522 20.3859 44.0555 20.5388 43.4132 20.5388Z" fill="white"/>
<path d="M29.4648 20.2868V4.27539H36.6677C37.4017 4.27539 38.0593 4.39773 38.6404 4.64241C39.2368 4.8718 39.7415 5.20824 40.1544 5.65173C40.5673 6.07992 40.8808 6.59987 41.0949 7.21158C41.309 7.82328 41.416 8.49616 41.416 9.2302C41.416 9.97954 41.309 10.6601 41.0949 11.2718C40.8808 11.8682 40.5673 12.3881 40.1544 12.8316C39.7415 13.2598 39.2368 13.5963 38.6404 13.8409C38.0593 14.0703 37.4017 14.185 36.6677 14.185H32.4928V20.2868H29.4648ZM32.4928 11.57H36.3924C36.9735 11.57 37.4323 11.4171 37.7687 11.1112C38.1052 10.7901 38.2734 10.3389 38.2734 9.7578V8.70261C38.2734 8.12149 38.1052 7.678 37.7687 7.37215C37.4323 7.0663 36.9735 6.91337 36.3924 6.91337H32.4928V11.57Z" fill="white"/>
<path d="M26.3543 20.2867H15.2518V17.4881L20.2755 13.0838C21.1318 12.3345 21.7588 11.6616 22.1565 11.0652C22.5541 10.4535 22.7529 9.79591 22.7529 9.09245V8.79424C22.7529 8.09078 22.5235 7.55554 22.0647 7.18851C21.6059 6.8062 21.0477 6.61504 20.3902 6.61504C19.5644 6.61504 18.9374 6.85208 18.5092 7.32615C18.081 7.78493 17.7751 8.34311 17.5916 9.00069L14.9766 7.99138C15.1448 7.45614 15.3818 6.95148 15.6877 6.47741C15.9935 5.98804 16.3758 5.55985 16.8346 5.19283C17.3087 4.8258 17.8592 4.53524 18.4862 4.32115C19.1132 4.10705 19.832 4 20.6425 4C21.4836 4 22.2329 4.12234 22.8905 4.36702C23.5481 4.59641 24.0986 4.9252 24.5421 5.3534C25.0009 5.78159 25.345 6.28625 25.5744 6.86737C25.819 7.44849 25.9414 8.08313 25.9414 8.7713C25.9414 9.44418 25.8343 10.0559 25.6202 10.6064C25.4061 11.157 25.1156 11.6845 24.7486 12.1892C24.3815 12.6786 23.9533 13.1526 23.464 13.6114C22.9746 14.0549 22.4547 14.506 21.9041 14.9648L18.5321 17.7404H26.3543V20.2867Z" fill="white"/>
<path d="M0.5 4.27539H7.90928C8.56686 4.27539 9.15563 4.37479 9.67558 4.5736C10.2108 4.7724 10.662 5.04767 11.029 5.3994C11.396 5.75113 11.6713 6.18697 11.8548 6.70692C12.0536 7.21158 12.153 7.76976 12.153 8.38146C12.153 8.99317 12.0689 9.51312 11.9007 9.94131C11.7477 10.3542 11.5336 10.6983 11.2584 10.9736C10.9984 11.2488 10.6925 11.4553 10.3408 11.5929C10.0044 11.7305 9.65264 11.807 9.28562 11.8223V11.9599C9.63735 11.9599 10.012 12.0288 10.4096 12.1664C10.8225 12.304 11.1972 12.5258 11.5336 12.8316C11.8854 13.1222 12.1759 13.5045 12.4053 13.9786C12.6347 14.4373 12.7494 15.0108 12.7494 15.699C12.7494 16.3413 12.6424 16.9453 12.4283 17.5112C12.2295 18.0617 11.9465 18.5434 11.5795 18.9563C11.2125 19.3692 10.7767 19.698 10.272 19.9427C9.76734 20.1721 9.2168 20.2868 8.62039 20.2868H0.5V4.27539ZM3.52794 17.7176H7.74871C8.32983 17.7176 8.78096 17.5723 9.10211 17.2818C9.42325 16.9759 9.58383 16.5401 9.58383 15.9743V15.1943C9.58383 14.6285 9.42325 14.1927 9.10211 13.8868C8.78096 13.581 8.32983 13.428 7.74871 13.428H3.52794V17.7176ZM3.52794 10.9506H7.26699C7.81753 10.9506 8.24572 10.8053 8.55157 10.5148C8.85742 10.2089 9.01035 9.78839 9.01035 9.25314V8.54204C9.01035 8.00679 8.85742 7.59389 8.55157 7.30333C8.24572 6.99748 7.81753 6.84455 7.26699 6.84455H3.52794V10.9506Z" fill="white"/>
</svg>
